<?xml version="1.0" encoding="UTF-8" standalone="no"?>
<svg
   xmlns:dc="http://purl.org/dc/elements/1.1/"
   xmlns:cc="http://creativecommons.org/ns#"
   xmlns:rdf="http://www.w3.org/1999/02/22-rdf-syntax-ns#"
   xmlns:svg="http://www.w3.org/2000/svg"
   xmlns="http://www.w3.org/2000/svg"
   viewBox="0 0 4509.7334 662.40002"
   height="662.40002"
   width="4509.7334"
   xml:space="preserve"
   id="svg2"
   version="1.1"><metadata
     id="metadata8"><rdf:RDF><cc:Work
         rdf:about=""><dc:format>image/svg+xml</dc:format><dc:type
           rdf:resource="http://purl.org/dc/dcmitype/StillImage" /></cc:Work></rdf:RDF></metadata><defs
     id="defs6" /><g
     transform="matrix(1.3333333,0,0,-1.3333333,0,662.4)"
     id="g10"><g
       transform="scale(0.1)"
       id="g12"><g
         transform="scale(2.075)"
         id="g14"><path
           id="path16"
           style="fill:#000000;fill-opacity:1;fill-rule:nonzero;stroke:none"
           d="M 0,2775.9 V 0 h 13307.2 l -16.8,13.253 -16.9,14.4578 -15.7,15.6627 -13.2,16.8675 -12.1,18.0723 -10.8,16.8674 -9.7,18.0723 -7.2,16.867 -6,18.073 -4.8,18.072 -7.3,36.145 -3.6,36.144 -2.4,37.35 -1.2,34.939 v 539.759 h 289.2 V 284.337 l 1.2,-28.915 1.2,-14.458 2.4,-14.458 9.6,-26.506 8.5,-13.253 10.8,-12.048 9.6,-8.434 9.7,-7.229 10.8,-4.819 12.1,-4.819 12,-3.615 12.1,-2.41 13.2,-1.204 h 28.9 l 14.5,2.409 13.3,3.615 12,3.614 10.8,4.82 9.7,6.024 8.4,4.819 6,6.024 10.9,13.253 9.6,12.048 6,14.458 3.7,13.253 4.8,28.916 v 595.18 h 290.3 V 327.711 l -1.2,-42.169 -1.2,-22.891 -2.4,-21.687 -3.6,-21.687 -4.8,-22.891 -6,-21.687 -6.1,-22.892 -19.2,-43.373 -12.1,-20.4822 -14.4,-21.6867 -16.9,-19.2771 -19.3,-19.2772 L 13888,13.253 13869.9,0 h 433.7 l -22.9,18.0723 -21.7,19.2771 -20.4,20.4819 -18.1,20.482 -16.9,22.8917 -15.6,24.096 -13.3,24.097 -13.3,25.301 -10.8,26.506 -8.4,25.301 -8.5,27.711 -6,26.506 -4.8,27.711 -3.6,27.711 -2.4,28.915 -1.2,27.711 2.4,45.783 2.4,22.892 3.6,21.687 3.6,22.891 4.8,22.892 7.3,21.686 6,21.687 8.4,21.687 19.3,40.964 10.8,20.482 24.1,38.554 13.3,18.072 14.4,18.072 15.7,16.868 33.7,31.325 36.2,28.916 41,24.096 21.6,10.844 22.9,9.638 22.9,8.434 24.1,7.229 25.3,6.024 26.5,4.819 26.5,3.615 27.7,2.409 h 54.3 l 25.3,-2.409 25.3,-2.41 25.3,-3.614 25.3,-6.025 24.1,-6.024 24.1,-7.229 22.8,-8.433 22.9,-9.639 22.9,-10.843 21.7,-12.048 21.7,-13.253 20.5,-14.458 20.5,-15.663 18,-16.867 19.3,-16.868 13.3,-15.662 12,-13.253 19.3,-26.506 16.9,-25.302 14.4,-26.506 -242.1,-119.277 -9.7,21.687 -12,24.096 -7.3,13.253 -8.4,12.049 -19.3,24.096 -24.1,21.687 -14.4,9.638 -15.7,7.229 -16.9,7.229 -18,4.819 -20.5,3.615 -21.7,1.205 -22.9,-1.205 -20.5,-3.615 -18,-6.024 -16.9,-7.229 -13.3,-7.229 -12,-8.433 -10.9,-8.434 -8.4,-7.229 -12,-12.048 -10.9,-14.458 -8.4,-13.253 -8.5,-14.458 -6,-14.458 -6,-15.662 -7.2,-28.916 -6.1,-27.711 -2.4,-25.301 v -21.687 l -1.2,-16.867 1.2,-24.097 1.2,-25.301 3.7,-24.096 4.8,-24.097 6,-22.891 7.2,-21.687 8.5,-20.482 10.8,-18.072 12.1,-18.072 14.4,-15.663 15.7,-13.253 16.8,-12.048 9.7,-4.82 10.8,-4.819 9.7,-3.614 10.8,-2.41 12.1,-2.41 12,-2.409 12.1,-1.205 h 13.2 l 24.1,1.205 21.7,3.614 20.5,6.024 18,8.434 15.7,8.434 14.5,10.843 13.2,12.048 10.9,12.049 9.6,13.253 8.4,12.048 7.3,13.253 6,10.843 9.6,21.687 4.8,15.663 245.8,-119.278 -18,-31.325 -19.3,-32.53 -10.9,-15.6626 -12,-15.6627 -13.3,-16.8675 -15.6,-15.6626 -28.9,-26.506 -15.7,-12.0482 L 14881.9,0 h 265.1 v 853.012 h 287.9 V 181.928 h 373.5 V 0 H 16300 V 2775.9 H 0" /></g><g
         transform="scale(1.65982)"
         id="g18"><path
           id="path20"
           style="fill:#ffffff;fill-opacity:1;fill-rule:nonzero;stroke:none"
           d="m 16098.2,855.517 -200.4,-43.68 3.1,-10.543 h 1.5 l 3,-1.507 1.5,-1.506 3,-18.074 h 378.1 l 3,18.074 3,3.013 h 3 l 3,10.543 -201.8,43.68" /></g><g
         transform="scale(1.62423)"
         id="g22"><path
           id="path24"
           style="fill:#ffffff;fill-opacity:1;fill-rule:nonzero;stroke:none"
           d="m 16298.5,792.682 h 1.5 v 4.617 l -1.5,1.54 h -29.3 l -1.5,-1.54 v -4.617 h 3.1 v -4.618 l 3,-4.617 h -1.5 v -6.157 l 1.5,-1.539 v -52.333 l -1.5,-44.636 v -16.931 l -1.5,-1.539 v -3.079 h -1.6 v -4.617 h 29.3 v 4.617 h -1.6 v 3.079 l -1.5,1.539 v 61.567 l -1.6,52.333 1.6,1.539 v 6.157 h -1.6 l 3.1,4.617 v 4.618 h 1.6" /></g><g
         transform="scale(1.63083)"
         id="g26"><path
           id="path28"
           style="fill:#ffffff;fill-opacity:1;fill-rule:nonzero;stroke:none"
           d="m 16300,789.476 v 6.132 h -30.7 v -6.132 h 1.6 v -1.533 l 1.5,-3.066 3.1,-4.599 h -1.6 l -1.5,-1.533 1.5,-3.066 v -3.065 h 1.6 l -1.6,-52.121 v -61.319 l -1.5,-1.533 v -3.066 h -3.1 v -4.599 h 30.7 v 4.599 h -3.1 v 3.066 l -1.5,1.533 v 61.319 l -1.5,52.121 h 1.5 v 3.065 l 1.5,3.066 -1.5,1.533 h -1.5 l 3,4.599 1.6,3.066 v 1.533 h 1.5" /></g><g
         transform="scale(1.63758)"
         id="g30"><path
           id="path32"
           style="fill:#ffffff;fill-opacity:1;fill-rule:nonzero;stroke:none"
           d="m 16298.5,786.223 h 1.5 v 4.58 l -1.5,1.526 h -29 l -1.6,-1.526 v -4.58 h 3.1 v -4.58 l 3,-4.58 h -1.5 v -6.107 l 1.5,-1.526 v -51.906 l -1.5,-44.273 v -16.793 l -1.5,-1.527 v -3.053 h -1.5 v -4.58 h 29 v 4.58 h -1.6 v 3.053 l -1.5,1.527 v 61.066 l -1.5,51.906 1.5,1.526 v 6.107 h -1.5 l 3,4.58 v 4.58 h 1.6" /></g><g
         transform="scale(1.64417)"
         id="g34"><path
           id="path36"
           style="fill:#ffffff;fill-opacity:1;fill-rule:nonzero;stroke:none"
           d="m 16300,783.069 v 6.082 h -30.4 v -6.082 h 1.5 v -1.521 l 1.5,-3.041 1.6,-4.561 h 1.5 -1.5 l -1.6,-1.521 1.6,-3.041 V 653.825 l -1.6,-1.521 v -3.041 h -3 v -4.562 h 30.4 v 4.562 h -3 v 3.041 l -1.6,1.521 v 60.82 l -1.5,51.698 h 1.5 v 3.041 l 1.6,3.041 -1.6,1.521 h -1.5 l 3.1,4.561 v 3.041 l 1.5,1.521 h 1.5" /></g><g
         transform="scale(1.65092)"
         id="g38"><path
           id="path40"
           style="fill:#ffffff;fill-opacity:1;fill-rule:nonzero;stroke:none"
           d="m 16298.5,779.868 h 1.5 v 4.543 l -1.5,1.514 h -28.8 l -1.5,-1.514 v -4.543 h 1.5 l 1.5,-1.514 v -3.029 l 3.1,-4.543 h -1.6 v -7.571 h 1.6 l -1.6,-51.487 v -60.572 l -1.5,-1.514 v -3.029 h -1.5 v -4.543 h 28.8 v 4.543 h -1.5 v 3.029 l -1.5,1.514 v 16.657 l -1.6,43.915 v 51.487 l 1.6,1.514 v 6.057 h -1.6 l 3.1,4.543 v 4.543 h 1.5" /></g><g
         transform="scale(1.65752)"
         id="g42"><path
           id="path44"
           style="fill:#ffffff;fill-opacity:1;fill-rule:nonzero;stroke:none"
           d="m 16300,776.765 v 6.033 h -30.2 v -6.033 h 1.5 v -1.508 l 1.6,-3.017 1.5,-4.525 h 1.5 -1.5 l -1.5,-1.508 1.5,-3.016 v -114.63 l -1.5,-1.508 v -3.017 h -3.1 v -4.525 h 30.2 v 4.525 h -3 v 3.017 l -1.5,1.508 v 60.331 l -1.5,51.282 h 1.5 v 3.017 l 1.5,3.016 -1.5,1.508 h -1.5 l 3,4.525 v 3.017 l 1.5,1.508 h 1.5" /></g><g
         transform="scale(1.64893)"
         id="g46"><path
           id="path48"
           style="fill:#ffffff;fill-opacity:1;fill-rule:nonzero;stroke:none"
           d="m 16298.5,899.07 h -3 l -1.6,1.516 v 4.548 h -4.5 v 4.549 h -3 v 9.097 l -1.6,13.645 -1.5,7.581 -3,9.096 -9.1,18.194 -10.6,12.129 -10.6,9.097 -9.1,7.581 -9.1,3.032 -1.5,3.035 -1.6,1.51 -6,3.04 h -1.5 v 4.54 h 3 v 4.55 l -1.5,1.52 h -3.1 l -1.5,1.51 v 3.04 h -1.5 v 22.74 h 1.5 l 1.5,1.52 v 1.51 l -3,3.03 1.5,1.52 h 1.5 v 3.03 h -3 l -6.1,6.07 -1.5,3.03 -1.5,1.52 h -1.5 v 1.51 h 1.5 v 1.52 l -3,3.03 -1.5,-3.03 v -1.52 l 1.5,-1.51 h -3 v -1.52 l -3.1,-3.03 -4.5,-6.07 h -3.1 v -3.03 h 1.6 v -3.03 h -1.6 v -4.55 h 1.6 v -22.74 l -1.6,-1.52 v -1.52 l -1.5,-1.51 h -3 l -1.5,-1.52 v -3.03 l 1.5,-1.52 h 1.5 l 1.5,-1.51 v -1.52 l -1.5,-1.51 h -1.5 l -4.6,-3.04 -3,-1.51 v -3.035 l -9.1,-3.032 -10.6,-7.581 -10.6,-9.097 -9.1,-12.129 -6.1,-9.097 -6,-18.193 -1.6,-7.581 -1.5,-13.645 v -7.581 l -1.5,-1.516 h -1.5 l -1.5,-1.516 v -3.033 h -3.1 l -1.5,-1.516 v -4.548 h -4.5 v -4.549 h 3 v -3.032 l 1.5,-3.032 h 1.5 v -13.645 l -1.5,-3.033 -3,-3.032 v -21.226 l 92.5,21.226 92.5,-21.226 v 22.742 l -3.1,1.516 -1.5,3.033 v 13.645 h 3.1 v 3.032 l 1.5,3.032 h 3 v 4.549 h -1.5" /></g><g
         transform="scale(1.66012)"
         id="g50"><path
           id="path52"
           style="fill:#ffffff;fill-opacity:1;fill-rule:nonzero;stroke:none"
           d="m 16286.4,600.859 v 27.107 h -12 v 12.047 h -356.9 v -12.047 h -13.6 v -27.107 h -13.5 v -27.106 h 409.6 v 27.106 h -13.6" /></g></g></g></svg>